<?xml version="1.0" encoding="UTF-8"?>
<svg id="Capa_1" xmlns="http://www.w3.org/2000/svg" version="1.1" xmlns:xlink="http://www.w3.org/1999/xlink" viewBox="0 0 1946.1 394.7">
  <!-- Generator: Adobe Illustrator 29.4.0, SVG Export Plug-In . SVG Version: 2.1.0 Build 152)  -->
  <defs>
    <style>
      .st0 {
        font-family: InterTight-Bold, 'Inter Tight';
        font-size: 665.6px;
        font-weight: 700;
        letter-spacing: 0em;
      }

      .st1 {
        fill: none;
        stroke: #1eff05;
        stroke-linecap: round;
        stroke-linejoin: round;
        stroke-width: 71px;
      }

      .st2 {
        fill: #f4f4f4;
      }
    </style>
  </defs>
  <text class="st0" transform="translate(304.3 -514)"><tspan x="0" y="0">Inmolinks</tspan></text>
  <g>
    <rect x="-653.3" y="-1113.1" width="789" height="789" rx="202.5" ry="202.5"/>
    <g>
      <path class="st1" d="M-138.5-618.8l35-14c70-28,104.6-108.2,76.5-178.4-28-70-108.2-104.6-178.4-76.5l-35,14"/>
      <path class="st1" d="M-379.3-818.2l-34.8,13.9c-70.2,28.1-104.6,108.2-76.5,178.4,28,70,108.2,104.6,178.4,76.5l34.8-13.9"/>
      <path class="st1" d="M-351.5-681.5l185.4-74.1"/>
    </g>
  </g>
  <text class="st0" transform="translate(304.3 -514)"><tspan x="0" y="0">Inmolinks</tspan></text>
  <g>
    <rect x="-653.3" y="-1113.1" width="789" height="789" rx="202.5" ry="202.5"/>
    <g>
      <path class="st1" d="M-138.5-618.8l35-14c70-28,104.6-108.2,76.5-178.4-28-70-108.2-104.6-178.4-76.5l-35,14"/>
      <path class="st1" d="M-379.3-818.2l-34.8,13.9c-70.2,28.1-104.6,108.2-76.5,178.4,28,70,108.2,104.6,178.4,76.5l34.8-13.9"/>
      <path class="st1" d="M-351.5-681.5l185.4-74.1"/>
    </g>
  </g>
  <image width="400" height="300" transform="translate(-1968.5 -213.8)" xlink:href="Logo modular CRM-1.png"/>
  <g>
    <path d="M4244.9,295h99.7l133.2,325.1h5.1l133.5-325.1h100.9v448.9h-79.8v-308.5h-3.6l-124.7,307h-58.4l-123.2-307.6h-4.2v309.1h-78.3v-448.9Z"/>
    <path d="M4919.5,743.9c-32.9,0-61.5-7.1-85.6-21.3-24.1-14.2-42.7-34.1-55.9-59.7-13.2-25.6-19.7-55.4-19.7-89.2s6.6-64,19.7-89.7c13.2-25.7,31.8-45.7,55.9-59.8,24.1-14.2,52.6-21.3,85.6-21.3s61.5,7.1,85.6,21.3c24.1,14.2,42.8,34.1,56,59.8,13.3,25.7,19.9,55.6,19.9,89.7s-6.6,63.6-19.9,89.2c-13.3,25.6-31.9,45.5-56,59.7-24.1,14.2-52.6,21.3-85.6,21.3ZM4919.5,681.3c18.3,0,33.3-4.8,45.2-14.3,11.8-9.6,20.7-22.5,26.7-38.9,5.9-16.3,8.9-34.5,8.9-54.4s-3-38.6-8.9-55c-5.9-16.3-14.8-29.3-26.7-38.9-11.9-9.6-26.9-14.3-45.2-14.3s-32.8,4.8-44.9,14.3c-12.1,9.6-21,22.5-27,38.9-5.9,16.4-8.9,34.7-8.9,55s3,38,8.9,54.4c5.9,16.4,14.9,29.3,27,38.9,12.1,9.6,27,14.3,44.9,14.3Z"/>
    <path d="M5242.6,743.9c-26.3,0-50-6.7-70.9-20.1-21-13.4-37.5-32.8-49.6-58.4-12.1-25.6-18.1-56.6-18.1-93s6.2-68.3,18.5-93.6c12.4-25.4,29-44.6,49.9-57.7,20.9-13.1,44.3-19.6,70.2-19.6s36.2,3.3,48.8,9.8c12.7,6.5,22.7,14.4,30.3,23.6,7.5,9.2,13.3,17.8,17.3,25.7h3.3v-165.6h78.9v442.9h-77.4v-52.6h-4.8c-4.2,8.1-10.1,16.7-17.8,25.7-7.6,9-17.8,16.7-30.4,23.2-12.7,6.4-28.7,9.7-48.2,9.7ZM5264.6,679.7c16.9,0,31.2-4.5,42.9-13.5,11.7-9,20.7-21.6,27-37.8,6.2-16.2,9.3-34.9,9.3-56.3s-3.1-40.4-9.2-56.3c-6.1-16-15.1-28.3-26.8-37-11.7-8.7-26.2-13.1-43.2-13.1s-32.1,4.6-44,13.7c-11.9,9.1-20.7,21.7-26.7,37.8-5.9,16.1-8.9,34.4-8.9,55s3,39,9,55.3c6,16.3,14.9,29,26.7,38.3,11.7,9.3,26.4,14,43.8,14Z"/>
    <path d="M5688.4,598.6v-195.5h79.2v340.9l-76.8.2v-64.2h-3.6c-7.6,18.9-20.1,34.3-37.4,46.4-17.3,12-38.6,18-63.9,17.8-22.1,0-41.5-4.9-58.3-14.6-16.8-9.7-29.9-24.1-39.5-43.1-9.5-19-14.3-41.9-14.3-68.8v-214.5h79.2v202.4c0,21.1,5.9,38,17.6,50.6,11.7,12.7,27.2,18.9,46.2,18.7,11.6,0,22.9-2.8,33.9-8.4,10.9-5.6,19.9-14.1,27-25.3,7-11.2,10.5-25.4,10.5-42.5Z"/>
    <path d="M5899.1,295v448.9h-79.2v-448.9h79.2Z"/>
    <path d="M6355.2,479.8v264.3h-79.2v-264.3h79.2Z"/>
    <path d="M6048.9,743.9c-21.5,0-40.8-3.8-57.8-11.4-17.1-7.6-30.5-18.7-40.4-33.5-9.8-14.8-14.8-33-14.8-54.6s3.5-33.8,10.5-46c7-12.2,16.6-21.9,28.8-29.2,12.1-7.3,25.9-12.8,41.1-16.7,15.3-3.8,31-6.5,47.3-8.1,19.9-2.2,35.9-4,48.2-5.6,12.2-1.6,21.1-4.1,26.7-7.7,5.5-3.5,8.3-9,8.3-16.5v-1.5c0-15.9-4.8-28.3-14.5-37.2-9.6-8.9-23.7-13.3-42.2-13.3s-34.9,4.1-46.2,12.4c-11.3,8.3-19,18-23,29.2l-73.8-10.3c5.8-20.1,15.5-36.8,28.9-50.3,13.5-13.5,29.9-23.6,49.3-30.4,19.4-6.8,40.8-10.2,64.3-10.2s32.1,1.8,48.2,5.5c16.1,3.6,30.8,9.8,44.3,18.4,13.5,8.7,24.2,20.3,32.2,34.8,8,14.6,12.1,32.8,12.1,54.6v227.6h-76.2v-52.2h-2.4c-4.8,9.1-11.6,17.6-20.3,25.5-8.7,8-19.6,14.4-32.5,19.3-13,4.9-28.3,7.4-45.9,7.4ZM6069.1,685.5c16.1,0,29.9-3.2,41.6-9.5,11.6-6.3,20.7-14.8,27.1-25.3,6.4-10.5,9.6-22,9.6-34.5v-39.5c-2.6,2-6.8,3.9-12.7,5.6-5.8,1.7-12.5,3.3-19.9,4.7-7.4,1.4-14.7,2.6-21.8,3.6-7.1,1-13.3,1.8-18.5,2.4-11.9,1.6-22.4,4.3-31.8,8-9.3,3.7-16.7,8.8-22.1,15.2-5.4,6.4-8.1,14.8-8.1,25,0,14.7,5.3,25.7,16,33.1,10.6,7.4,24.2,11.1,40.7,11.1Z"/>
    <polygon points="6474.6 403 6474.6 479.8 6355.2 479.8 6424.6 403 6474.6 403"/>
  </g>
  <g>
    <path class="st2" d="M3.7,2.1h86.7l115.8,282.6h4.5L326.7,2.1h87.8v390.3h-69.4V124.2h-3.1l-108.4,266.9h-50.8L75.5,123.7h-3.7v268.8H3.7V2.1Z"/>
    <path class="st2" d="M590.3,392.4c-28.6,0-53.4-6.2-74.4-18.5-21-12.3-37.2-29.6-48.6-51.9-11.4-22.3-17.2-48.1-17.2-77.6s5.7-55.6,17.2-78c11.4-22.4,27.6-39.7,48.6-52,21-12.3,45.7-18.5,74.4-18.5s53.4,6.2,74.4,18.5c21,12.3,37.2,29.7,48.7,52,11.5,22.4,17.3,48.3,17.3,78s-5.8,55.3-17.3,77.6c-11.5,22.3-27.8,39.6-48.7,51.9-21,12.3-45.8,18.5-74.4,18.5ZM590.3,338c15.9,0,29-4.2,39.3-12.5,10.3-8.3,18-19.6,23.2-33.8,5.1-14.2,7.7-30,7.7-47.3s-2.6-33.6-7.7-47.8c-5.2-14.2-12.9-25.5-23.2-33.8-10.3-8.3-23.4-12.5-39.3-12.5s-28.6,4.2-39,12.5c-10.5,8.3-18.3,19.6-23.4,33.8-5.2,14.2-7.7,30.2-7.7,47.8s2.6,33.1,7.7,47.3c5.1,14.2,13,25.5,23.4,33.8,10.5,8.3,23.5,12.5,39,12.5Z"/>
    <path class="st2" d="M871.3,392.4c-22.9,0-43.4-5.8-61.7-17.4-18.3-11.6-32.6-28.6-43.1-50.8s-15.7-49.2-15.7-80.9,5.4-59.4,16.1-81.4c10.7-22.1,25.2-38.8,43.4-50.1,18.2-11.4,38.5-17.1,61-17.1s31.4,2.8,42.4,8.5c11,5.7,19.8,12.5,26.3,20.5,6.5,8,11.6,15.5,15.1,22.4h2.9V2.1h68.6v385.1h-67.3v-45.7h-4.2c-3.7,7.1-8.8,14.5-15.5,22.4-6.6,7.8-15.5,14.6-26.5,20.2-11,5.6-25,8.4-41.9,8.4ZM890.4,336.6c14.7,0,27.1-3.9,37.3-11.8,10.2-7.8,18-18.8,23.4-32.8,5.4-14,8.1-30.4,8.1-49s-2.7-35.1-8-49c-5.3-13.9-13.1-24.6-23.3-32.2-10.2-7.6-22.7-11.4-37.6-11.4s-27.9,4-38.2,11.9c-10.3,7.9-18,18.9-23.2,32.8-5.2,14-7.7,29.9-7.7,47.8s2.6,33.9,7.9,48.1c5.2,14.1,13,25.2,23.2,33.3,10.2,8.1,22.9,12.1,38.1,12.1Z"/>
    <path class="st2" d="M1258.8,266.1V96.1h68.9v296.4h-66.8c0,.1,0-55.7,0-55.7h-3.1c-6.6,16.4-17.5,29.9-32.5,40.3-15,10.5-33.5,15.6-55.5,15.5-19.2,0-36.1-4.2-50.7-12.7-14.6-8.5-26-21-34.3-37.5-8.3-16.5-12.4-36.4-12.4-59.9V96.1h68.9v176c0,18.3,5.1,33,15.3,44,10.2,11,23.6,16.4,40.2,16.2,10.1,0,19.9-2.4,29.5-7.3,9.5-4.9,17.3-12.2,23.4-22,6.1-9.8,9.2-22.1,9.2-36.9Z"/>
    <path class="st2" d="M1442,2.1v390.3h-68.9V2.1h68.9Z"/>
    <path class="st2" d="M1838.6,162.8v229.8h-68.9v-229.8h68.9Z"/>
    <path class="st2" d="M1572.3,392.4c-18.7,0-35.5-3.3-50.3-9.9-14.8-6.6-26.5-16.3-35.1-29.1-8.6-12.8-12.8-28.7-12.8-47.5s3.1-29.4,9.2-40c6.1-10.6,14.4-19.1,25-25.4,10.6-6.3,22.5-11.2,35.8-14.5,13.3-3.3,27-5.7,41.1-7.1,17.3-1.9,31.3-3.5,41.9-4.9,10.6-1.4,18.4-3.6,23.2-6.7,4.8-3.1,7.2-7.9,7.2-14.4v-1.3c0-13.9-4.2-24.6-12.6-32.3-8.4-7.7-20.6-11.5-36.7-11.5s-30.3,3.6-40.2,10.8c-9.9,7.2-16.5,15.7-20,25.4l-64.2-9c5.1-17.5,13.4-32,25.1-43.8,11.7-11.7,26-20.5,42.8-26.4,16.8-5.9,35.5-8.9,55.9-8.9s27.9,1.6,41.9,4.7c14,3.2,26.8,8.5,38.5,16,11.7,7.5,21,17.6,28,30.3,7,12.7,10.5,28.5,10.5,47.5v197.9h-66.3v-45.4h-2.1c-4.2,7.9-10.1,15.3-17.7,22.2-7.6,6.9-17,12.5-28.3,16.8s-24.6,6.4-39.9,6.4ZM1589.8,341.6c14,0,26-2.8,36.1-8.3,10.1-5.5,18-12.8,23.6-22,5.6-9.2,8.4-19.2,8.4-30v-34.3c-2.3,1.7-5.9,3.4-11,4.8-5.1,1.5-10.8,2.8-17.3,4.1-6.5,1.2-12.8,2.3-19,3.1-6.2.9-11.6,1.6-16.1,2.1-10.3,1.4-19.5,3.7-27.6,6.9-8.1,3.2-14.5,7.6-19.3,13.2-4.7,5.6-7.1,12.8-7.1,21.7,0,12.7,4.6,22.4,13.9,28.8,9.3,6.5,21,9.7,35.4,9.7Z"/>
    <polygon class="st2" points="1942.4 96 1942.4 162.8 1838.6 162.8 1899 96 1942.4 96"/>
  </g>
  <polygon points="5869.9 -718.6 5869.9 -368.6 5326 -368.6 5642.3 -718.6 5869.9 -718.6"/>
  <polygon points="4652.8 -718.6 4652.8 -368.6 5196.6 -368.6 4880.4 -718.6 4652.8 -718.6"/>
  <polygon points="4652.8 111.2 4652.8 -238.8 5196.6 -238.8 4880.4 111.2 4652.8 111.2"/>
  <polygon points="5869.9 111.2 5869.9 -238.8 5326 -238.8 5642.3 111.2 5869.9 111.2"/>
  <g>
    <path d="M2737.1-199.5h156.8c86.6,0,156.8,70.3,156.8,156.8h0c0,86.6-70.3,156.8-156.8,156.8h-156.8V-199.5h0Z"/>
    <path d="M2737.1,114.2h156.8c86.6,0,156.8,70.3,156.8,156.8h0c0,86.6-70.3,156.8-156.8,156.8h-156.8V114.2h0Z"/>
    <path d="M3050.8-205.5h156.8c86.6,0,156.8,70.3,156.8,156.8h0c0,86.6-70.3,156.8-156.8,156.8h-156.8V-205.5h0Z" transform="translate(6415.3 -97.4) rotate(-180)"/>
    <path d="M3050.8,108.1h156.8c86.6,0,156.8,70.3,156.8,156.8h0c0,86.6-70.3,156.8-156.8,156.8h-156.8V108.1h0Z" transform="translate(6415.3 529.9) rotate(-180)"/>
  </g>
  <polygon points="3628.3 974.8 3628.3 1051.6 3508.9 1051.6 3578.3 974.8 3628.3 974.8"/>
  <polygon points="3526.6 906.8 3584.3 957.5 3505.5 1047.2 3493.6 944.3 3526.6 906.8"/>
</svg>